<?xml version="1.0" standalone="no"?>
<svg xmlns:xlink="http://www.w3.org/1999/xlink" id="wave" style="transform:rotate(0deg); transition: 0.3s" viewBox="0 0 1440 140" version="1.1" xmlns="http://www.w3.org/2000/svg"><defs><linearGradient id="sw-gradient-0" x1="0" x2="0" y1="1" y2="0"><stop stop-color="rgba(137, 137, 137, 1)" offset="0%"/><stop stop-color="rgba(137, 137, 137, 1)" offset="100%"/></linearGradient></defs><path style="transform:translate(0, 0px); opacity:1" fill="url(#sw-gradient-0)" d="M0,28L240,56L480,42L720,56L960,98L1200,84L1440,42L1680,56L1920,56L2160,14L2400,84L2640,84L2880,42L3120,14L3360,98L3600,0L3840,42L4080,14L4320,0L4560,126L4800,56L5040,0L5280,56L5520,98L5760,42L5760,140L5520,140L5280,140L5040,140L4800,140L4560,140L4320,140L4080,140L3840,140L3600,140L3360,140L3120,140L2880,140L2640,140L2400,140L2160,140L1920,140L1680,140L1440,140L1200,140L960,140L720,140L480,140L240,140L0,140Z"/></svg>