<?xml version="1.0" standalone="no"?>
<svg xmlns:xlink="http://www.w3.org/1999/xlink" id="wave" style="transform:rotate(0deg); transition: 0.3s" viewBox="0 0 1440 140" version="1.1" xmlns="http://www.w3.org/2000/svg"><defs><linearGradient id="sw-gradient-0" x1="0" x2="0" y1="1" y2="0"><stop stop-color="rgba(92, 92, 92, 1)" offset="0%"/><stop stop-color="rgba(92, 92, 92, 1)" offset="100%"/></linearGradient></defs><path style="transform:translate(0, 0px); opacity:1" fill="url(#sw-gradient-0)" d="M0,28L240,14L480,70L720,56L960,14L1200,112L1440,70L1680,42L1920,28L2160,70L2400,70L2640,56L2880,70L3120,0L3360,84L3600,0L3840,42L4080,14L4320,42L4560,42L4800,14L5040,14L5280,0L5520,98L5760,98L5760,140L5520,140L5280,140L5040,140L4800,140L4560,140L4320,140L4080,140L3840,140L3600,140L3360,140L3120,140L2880,140L2640,140L2400,140L2160,140L1920,140L1680,140L1440,140L1200,140L960,140L720,140L480,140L240,140L0,140Z"/></svg>