<?xml version="1.0" standalone="no"?>
<svg xmlns:xlink="http://www.w3.org/1999/xlink" id="wave" style="transform:rotate(0deg); transition: 0.3s" viewBox="0 0 1440 140" version="1.1" xmlns="http://www.w3.org/2000/svg"><defs><linearGradient id="sw-gradient-0" x1="0" x2="0" y1="1" y2="0"><stop stop-color="rgba(112, 112, 112, 1)" offset="0%"/><stop stop-color="rgba(112, 112, 112, 1)" offset="100%"/></linearGradient></defs><path style="transform:translate(0, 0px); opacity:1" fill="url(#sw-gradient-0)" d="M0,28L240,0L480,42L720,70L960,42L1200,98L1440,56L1680,14L1920,70L2160,14L2400,14L2640,126L2880,56L3120,70L3360,70L3600,98L3840,42L4080,42L4320,42L4560,70L4800,56L5040,56L5280,42L5520,42L5760,84L5760,140L5520,140L5280,140L5040,140L4800,140L4560,140L4320,140L4080,140L3840,140L3600,140L3360,140L3120,140L2880,140L2640,140L2400,140L2160,140L1920,140L1680,140L1440,140L1200,140L960,140L720,140L480,140L240,140L0,140Z"/></svg>