<?xml version="1.0" standalone="no"?>
<svg xmlns:xlink="http://www.w3.org/1999/xlink" id="wave" style="transform:rotate(0deg); transition: 0.3s" viewBox="0 0 1440 140" version="1.1" xmlns="http://www.w3.org/2000/svg"><defs><linearGradient id="sw-gradient-0" x1="0" x2="0" y1="1" y2="0"><stop stop-color="rgba(51, 51, 51, 1)" offset="0%"/><stop stop-color="rgba(51, 51, 51, 1)" offset="100%"/></linearGradient></defs><path style="transform:translate(0, 0px); opacity:1" fill="url(#sw-gradient-0)" d="M0,14L240,56L480,28L720,84L960,70L1200,84L1440,28L1680,84L1920,0L2160,14L2400,56L2640,0L2880,70L3120,56L3360,126L3600,28L3840,126L4080,98L4320,14L4560,112L4800,28L5040,14L5280,98L5520,70L5760,126L5760,140L5520,140L5280,140L5040,140L4800,140L4560,140L4320,140L4080,140L3840,140L3600,140L3360,140L3120,140L2880,140L2640,140L2400,140L2160,140L1920,140L1680,140L1440,140L1200,140L960,140L720,140L480,140L240,140L0,140Z"/></svg>