<?xml version="1.0" standalone="no"?>
<svg xmlns:xlink="http://www.w3.org/1999/xlink" id="wave" style="transform:rotate(0deg); transition: 0.3s" viewBox="0 0 1440 140" version="1.1" xmlns="http://www.w3.org/2000/svg"><defs><linearGradient id="sw-gradient-0" x1="0" x2="0" y1="1" y2="0"><stop stop-color="rgba(125, 125, 125, 1)" offset="0%"/><stop stop-color="rgba(125, 125, 125, 1)" offset="100%"/></linearGradient></defs><path style="transform:translate(0, 0px); opacity:1" fill="url(#sw-gradient-0)" d="M0,70L240,84L480,56L720,28L960,98L1200,42L1440,42L1680,70L1920,56L2160,84L2400,112L2640,28L2880,84L3120,56L3360,84L3600,98L3840,0L4080,84L4320,84L4560,84L4800,42L5040,126L5280,84L5520,126L5760,98L5760,140L5520,140L5280,140L5040,140L4800,140L4560,140L4320,140L4080,140L3840,140L3600,140L3360,140L3120,140L2880,140L2640,140L2400,140L2160,140L1920,140L1680,140L1440,140L1200,140L960,140L720,140L480,140L240,140L0,140Z"/></svg>